<?xml version="1.0" encoding="UTF-8"?>
<!-- Generated by @gi-tcg/process-viewer. Do not edit directly. -->
<svg xmlns="http://www.w3.org/2000/svg" class="gi-process-diagram-svg  " viewBox="0 0 2927.47 2767" width="2927.47" height="2767" role="img" aria-labelledby="process-event-title process-event-description" preserveAspectRatio="xMidYMid meet"><title id="process-event-title">事件结算流程</title><desc id="process-event-description">对应 SkillExecutor.handleEvent：事件按列表顺序处理；嵌套事件和技能在当前位置完成后，才继续外层后续事件。</desc><defs><marker id="process-event-arrow-control" viewBox="0 0 10 10" refX="9" refY="5" markerWidth="7" markerHeight="7" orient="auto-start-reverse"><path d="M 0 0 L 10 5 L 0 10 z" fill="#334155"></path></marker><marker id="process-event-arrow-data" viewBox="0 0 10 10" refX="9" refY="5" markerWidth="7" markerHeight="7" orient="auto-start-reverse"><path d="M 0 0 L 10 5 L 0 10 z" fill="#0284c7"></path></marker><marker id="process-event-arrow-recursive" viewBox="0 0 10 10" refX="9" refY="5" markerWidth="7" markerHeight="7" orient="auto-start-reverse"><path d="M 0 0 L 10 5 L 0 10 z" fill="#7c3aed"></path></marker></defs><rect width="2927.47" height="2767" fill="#f8fafc"></rect><text x="1463.735" y="46" text-anchor="middle" fill="#0f172a" font-family="ui-sans-serif, system-ui, -apple-system, BlinkMacSystemFont, 'Segoe UI', sans-serif" font-size="28" font-weight="750">事件结算流程</text><text x="1463.735" y="78" text-anchor="middle" fill="#475569" font-family="ui-sans-serif, system-ui, -apple-system, BlinkMacSystemFont, 'Segoe UI', sans-serif" font-size="13">对应 SkillExecutor.handleEvent：事件按列表顺序处理；嵌套事件和技能在当前位置完成后，才继续外层后续事件。</text><g transform="translate(0 118)"><g data-group-id="event-loop"><rect x="1177.4" y="-14" width="1736.07" height="2345" rx="18" fill="#ecfdf5" stroke="#86efac" stroke-width="1.5"></rect><text x="1195.4" y="13" fill="#15803d" font-family="ui-sans-serif, system-ui, sans-serif" font-size="14" font-weight="700">handleEvent 事件循环</text></g><g data-edge-id="event-e-input-next"><path d="M 2764.87 113 L 2764.87 189" fill="none" stroke="#334155" stroke-width="2" stroke-linecap="round" stroke-linejoin="round" marker-end="url(#process-event-arrow-control)"></path></g><g data-edge-id="event-e-next-ended"><path d="M 2726.53 253 L 2726.53 287 L 2383.89 287 L 2383.89 427" fill="none" stroke="#334155" stroke-width="2" stroke-linecap="round" stroke-linejoin="round" marker-end="url(#process-event-arrow-control)"></path><g transform="translate(2349.89 329)"><rect width="32" height="22" rx="6" fill="#ffffff" stroke="#334155" stroke-width="1" opacity="0.96"></rect><text x="16" y="15" text-anchor="middle" fill="#334155" font-family="ui-sans-serif, system-ui, sans-serif" font-size="11.5" font-weight="600">有</text></g></g><g data-edge-id="event-e-next-done"><path d="M 2803.2 253 L 2803.2 340 L 2803.2 459 L 2803.2 578 L 2803.2 713.5 L 2803.2 870 L 2803.2 1113 L 2803.2 1436 L 2803.2 1589 L 2803.2 1742 L 2803.2 1899 L 2803.2 2127 L 2803.2 2271 L 2803.2 2390 L 2803.2 2435 L 1377.9 2435 L 1377.9 2477" fill="none" stroke="#334155" stroke-width="2" stroke-linecap="round" stroke-linejoin="round" marker-end="url(#process-event-arrow-control)"></path><g transform="translate(2806.2 1246.5)"><rect width="32" height="22" rx="6" fill="#ffffff" stroke="#334155" stroke-width="1" opacity="0.96"></rect><text x="16" y="15" text-anchor="middle" fill="#334155" font-family="ui-sans-serif, system-ui, sans-serif" font-size="11.5" font-weight="600">无</text></g></g><g data-edge-id="event-e-ended-done"><path d="M 2344.89 491 L 2344.89 525 L 76 525 L 76 578 L 76 713.5 L 76 870 L 76 1113 L 76 1257.5 L 76 1589 L 76 1742 L 76 1899 L 76 2127 L 76 2271 L 76 2390 L 76 2435 L 1262.9 2435 L 1262.9 2477" fill="none" stroke="#334155" stroke-width="2" stroke-linecap="round" stroke-linejoin="round" marker-end="url(#process-event-arrow-control)"></path><g transform="translate(42 1425)"><rect width="32" height="22" rx="6" fill="#ffffff" stroke="#334155" stroke-width="1" opacity="0.96"></rect><text x="16" y="15" text-anchor="middle" fill="#334155" font-family="ui-sans-serif, system-ui, sans-serif" font-size="11.5" font-weight="600">是</text></g></g><g data-edge-id="event-e-ended-open"><path d="M 2422.89 491 L 2422.89 665" fill="none" stroke="#334155" stroke-width="2" stroke-linecap="round" stroke-linejoin="round" marker-end="url(#process-event-arrow-control)"></path><g transform="translate(2388.89 567)"><rect width="32" height="22" rx="6" fill="#ffffff" stroke="#334155" stroke-width="1" opacity="0.96"></rect><text x="16" y="15" text-anchor="middle" fill="#334155" font-family="ui-sans-serif, system-ui, sans-serif" font-size="11.5" font-weight="600">否</text></g></g><g data-edge-id="event-e-open-dispatch"><path d="M 2422.89 762 L 2422.89 838" fill="none" stroke="#334155" stroke-width="2" stroke-linecap="round" stroke-linejoin="round" marker-end="url(#process-event-arrow-control)"></path></g><g data-edge-id="event-e-dispatch-reroll"><path d="M 2298.44 902 L 2298.44 936 L 202 936 L 202 1113 L 202 1257.5 L 202 1589 L 202 1742 L 202 1863" fill="none" stroke="#334155" stroke-width="2" stroke-linecap="round" stroke-linejoin="round" marker-end="url(#process-event-arrow-control)"></path><g transform="translate(140 1425)"><rect width="60" height="22" rx="6" fill="#ffffff" stroke="#334155" stroke-width="1" opacity="0.96"></rect><text x="30" y="15" text-anchor="middle" fill="#334155" font-family="ui-sans-serif, system-ui, sans-serif" font-size="11.5" font-weight="600">reroll</text></g></g><g data-edge-id="event-e-dispatch-switch-hands"><path d="M 2334 902 L 2334 958 L 328 958 L 328 1212.5" fill="none" stroke="#334155" stroke-width="2" stroke-linecap="round" stroke-linejoin="round" marker-end="url(#process-event-arrow-control)"></path><g transform="translate(231 1102)"><rect width="95" height="22" rx="6" fill="#ffffff" stroke="#334155" stroke-width="1" opacity="0.96"></rect><text x="47.5" y="15" text-anchor="middle" fill="#334155" font-family="ui-sans-serif, system-ui, sans-serif" font-size="11.5" font-weight="600">switchHands</text></g></g><g data-edge-id="event-e-dispatch-select"><path d="M 2369.56 902 L 2369.56 980 L 632 980 L 632 1212.5" fill="none" stroke="#334155" stroke-width="2" stroke-linecap="round" stroke-linejoin="round" marker-end="url(#process-event-arrow-control)"></path><g transform="translate(542 1102)"><rect width="88" height="22" rx="6" fill="#ffffff" stroke="#334155" stroke-width="1" opacity="0.96"></rect><text x="44" y="15" text-anchor="middle" fill="#334155" font-family="ui-sans-serif, system-ui, sans-serif" font-size="11.5" font-weight="600">selectCard</text></g></g><g data-edge-id="event-e-dispatch-use"><path d="M 2405.11 902 L 2405.11 1002 L 986 1002 L 986 1226" fill="none" stroke="#334155" stroke-width="2" stroke-linecap="round" stroke-linejoin="round" marker-end="url(#process-event-arrow-control)"></path><g transform="translate(910 1102)"><rect width="74" height="22" rx="6" fill="#ffffff" stroke="#334155" stroke-width="1" opacity="0.96"></rect><text x="37" y="15" text-anchor="middle" fill="#334155" font-family="ui-sans-serif, system-ui, sans-serif" font-size="11.5" font-weight="600">useSkill</text></g></g><g data-edge-id="event-e-dispatch-play"><path d="M 2440.67 902 L 2440.67 1024 L 1408.07 1024 L 1408.07 1257.5 L 1408.07 1391" fill="none" stroke="#334155" stroke-width="2" stroke-linecap="round" stroke-linejoin="round" marker-end="url(#process-event-arrow-control)"></path><g transform="translate(1332.07 1102)"><rect width="74" height="22" rx="6" fill="#ffffff" stroke="#334155" stroke-width="1" opacity="0.96"></rect><text x="37" y="15" text-anchor="middle" fill="#334155" font-family="ui-sans-serif, system-ui, sans-serif" font-size="11.5" font-weight="600">playCard</text></g></g><g data-edge-id="event-e-dispatch-adventure"><path d="M 2476.22 902 L 2476.22 1046 L 1947.33 1046 L 1947.33 1257.5 L 1947.33 1408.33" fill="none" stroke="#334155" stroke-width="2" stroke-linecap="round" stroke-linejoin="round" marker-end="url(#process-event-arrow-control)"></path><g transform="translate(1864.33 1102)"><rect width="81" height="22" rx="6" fill="#ffffff" stroke="#334155" stroke-width="1" opacity="0.96"></rect><text x="40.5" y="15" text-anchor="middle" fill="#334155" font-family="ui-sans-serif, system-ui, sans-serif" font-size="11.5" font-weight="600">adventure</text></g></g><g data-edge-id="event-e-dispatch-end"><path d="M 2511.78 902 L 2511.78 1068 L 2133.33 1068 L 2133.33 1212.5" fill="none" stroke="#334155" stroke-width="2" stroke-linecap="round" stroke-linejoin="round" marker-end="url(#process-event-arrow-control)"></path><g transform="translate(2022.33 1102)"><rect width="109" height="22" rx="6" fill="#ffffff" stroke="#334155" stroke-width="1" opacity="0.96"></rect><text x="54.5" y="15" text-anchor="middle" fill="#334155" font-family="ui-sans-serif, system-ui, sans-serif" font-size="11.5" font-weight="600">endPhaseSkill</text></g></g><g data-edge-id="event-e-dispatch-normal"><path d="M 2547.33 902 L 2547.33 1200" fill="none" stroke="#334155" stroke-width="2" stroke-linecap="round" stroke-linejoin="round" marker-end="url(#process-event-arrow-control)"></path><g transform="translate(2471.33 1102)"><rect width="74" height="22" rx="6" fill="#ffffff" stroke="#334155" stroke-width="1" opacity="0.96"></rect><text x="37" y="15" text-anchor="middle" fill="#334155" font-family="ui-sans-serif, system-ui, sans-serif" font-size="11.5" font-weight="600">普通事件</text></g></g><g data-edge-id="event-e-reroll-finish"><path d="M 202 1935 L 202 2057 L 1224.57 2057 L 1224.57 2091" fill="none" stroke="#334155" stroke-width="2" stroke-linecap="round" stroke-linejoin="round" marker-end="url(#process-event-arrow-control)"></path></g><g data-edge-id="event-e-switch-finish"><path d="M 328 1302.5 L 328 1436 L 328 1742 L 328 1899 L 328 2035 L 1243.73 2035 L 1243.73 2091" fill="none" stroke="#7c3aed" stroke-width="2.5" stroke-linecap="round" stroke-linejoin="round" marker-end="url(#process-event-arrow-recursive)"></path><g transform="translate(238 1578)"><rect width="88" height="22" rx="6" fill="#ffffff" stroke="#7c3aed" stroke-width="1" opacity="0.96"></rect><text x="44" y="15" text-anchor="middle" fill="#7c3aed" font-family="ui-sans-serif, system-ui, sans-serif" font-size="11.5" font-weight="600">产生的事件</text></g></g><g data-edge-id="event-e-select-finish"><path d="M 632 1302.5 L 632 1436 L 632 1742 L 632 1899 L 632 2013 L 1262.9 2013 L 1262.9 2091" fill="none" stroke="#7c3aed" stroke-width="2.5" stroke-linecap="round" stroke-linejoin="round" marker-end="url(#process-event-arrow-recursive)"></path><g transform="translate(479 1578)"><rect width="151" height="22" rx="6" fill="#ffffff" stroke="#7c3aed" stroke-width="1" opacity="0.96"></rect><text x="75.5" y="15" text-anchor="middle" fill="#7c3aed" font-family="ui-sans-serif, system-ui, sans-serif" font-size="11.5" font-weight="600">结果 + onSelectCard</text></g></g><g data-edge-id="event-e-use-invalid"><path d="M 931 1302 L 931 1349 L 869 1349 L 869 1436 L 869 1742 L 869 1899 L 869 1991 L 1282.07 1991 L 1282.07 2091" fill="none" stroke="#334155" stroke-width="2" stroke-linecap="round" stroke-linejoin="round" marker-end="url(#process-event-arrow-control)"></path><g transform="translate(751 1578)"><rect width="116" height="22" rx="6" fill="#ffffff" stroke="#334155" stroke-width="1" opacity="0.96"></rect><text x="58" y="15" text-anchor="middle" fill="#334155" font-family="ui-sans-serif, system-ui, sans-serif" font-size="11.5" font-weight="600">否：记录并跳过</text></g></g><g data-edge-id="event-e-use-before"><path d="M 1041 1302 L 1041 1557" fill="none" stroke="#334155" stroke-width="2" stroke-linecap="round" stroke-linejoin="round" marker-end="url(#process-event-arrow-control)"></path><g transform="translate(1007 1425)"><rect width="32" height="22" rx="6" fill="#ffffff" stroke="#334155" stroke-width="1" opacity="0.96"></rect><text x="16" y="15" text-anchor="middle" fill="#334155" font-family="ui-sans-serif, system-ui, sans-serif" font-size="11.5" font-weight="600">是</text></g></g><g data-edge-id="event-e-use-finalize"><path d="M 1041 1621 L 1041 1706" fill="none" stroke="#7c3aed" stroke-width="2.5" stroke-linecap="round" stroke-linejoin="round" marker-end="url(#process-event-arrow-recursive)"></path></g><g data-edge-id="event-e-use-after"><path d="M 1041 1778 L 1041 1867" fill="none" stroke="#7c3aed" stroke-width="2.5" stroke-linecap="round" stroke-linejoin="round" marker-end="url(#process-event-arrow-recursive)"></path></g><g data-edge-id="event-e-use-finish"><path d="M 1041 1931 L 1041 1969 L 1301.23 1969 L 1301.23 2091" fill="none" stroke="#334155" stroke-width="2" stroke-linecap="round" stroke-linejoin="round" marker-end="url(#process-event-arrow-control)"></path></g><g data-edge-id="event-e-play-exists"><path d="M 1408.07 1481 L 1408.07 1557" fill="none" stroke="#334155" stroke-width="2" stroke-linecap="round" stroke-linejoin="round" marker-end="url(#process-event-arrow-control)"></path></g><g data-edge-id="event-e-play-skip"><path d="M 1369.73 1621 L 1369.73 1655 L 1320.4 1655 L 1320.4 1899 L 1320.4 2091" fill="none" stroke="#334155" stroke-width="2" stroke-linecap="round" stroke-linejoin="round" marker-end="url(#process-event-arrow-control)"></path><g transform="translate(1244.4 1731)"><rect width="74" height="22" rx="6" fill="#ffffff" stroke="#334155" stroke-width="1" opacity="0.96"></rect><text x="37" y="15" text-anchor="middle" fill="#334155" font-family="ui-sans-serif, system-ui, sans-serif" font-size="11.5" font-weight="600">否：跳过</text></g></g><g data-edge-id="event-e-play-finalize"><path d="M 1446.4 1621 L 1446.4 1867" fill="none" stroke="#334155" stroke-width="2" stroke-linecap="round" stroke-linejoin="round" marker-end="url(#process-event-arrow-control)"></path><g transform="translate(1449.4 1731)"><rect width="32" height="22" rx="6" fill="#ffffff" stroke="#334155" stroke-width="1" opacity="0.96"></rect><text x="16" y="15" text-anchor="middle" fill="#334155" font-family="ui-sans-serif, system-ui, sans-serif" font-size="11.5" font-weight="600">是</text></g></g><g data-edge-id="event-e-play-finish"><path d="M 1446.4 1931 L 1446.4 1969 L 1339.57 1969 L 1339.57 2091" fill="none" stroke="#7c3aed" stroke-width="2.5" stroke-linecap="round" stroke-linejoin="round" marker-end="url(#process-event-arrow-recursive)"></path></g><g data-edge-id="event-e-adventure-existing"><path d="M 1890.67 1472.33 L 1890.67 1515 L 1712.4 1515 L 1712.4 1706" fill="none" stroke="#334155" stroke-width="2" stroke-linecap="round" stroke-linejoin="round" marker-end="url(#process-event-arrow-control)"></path><g transform="translate(1678.4 1578)"><rect width="32" height="22" rx="6" fill="#ffffff" stroke="#334155" stroke-width="1" opacity="0.96"></rect><text x="16" y="15" text-anchor="middle" fill="#334155" font-family="ui-sans-serif, system-ui, sans-serif" font-size="11.5" font-weight="600">是</text></g></g><g data-edge-id="event-e-adventure-select"><path d="M 2004 1472.33 L 2004 1697" fill="none" stroke="#334155" stroke-width="2" stroke-linecap="round" stroke-linejoin="round" marker-end="url(#process-event-arrow-control)"></path><g transform="translate(1970 1578)"><rect width="32" height="22" rx="6" fill="#ffffff" stroke="#334155" stroke-width="1" opacity="0.96"></rect><text x="16" y="15" text-anchor="middle" fill="#334155" font-family="ui-sans-serif, system-ui, sans-serif" font-size="11.5" font-weight="600">否</text></g></g><g data-edge-id="event-e-adventure-existing-finish"><path d="M 1712.4 1778 L 1712.4 1991 L 1358.73 1991 L 1358.73 2091" fill="none" stroke="#7c3aed" stroke-width="2.5" stroke-linecap="round" stroke-linejoin="round" marker-end="url(#process-event-arrow-recursive)"></path><g transform="translate(1615.4 1888)"><rect width="95" height="22" rx="6" fill="#ffffff" stroke="#7c3aed" stroke-width="1" opacity="0.96"></rect><text x="47.5" y="15" text-anchor="middle" fill="#7c3aed" font-family="ui-sans-serif, system-ui, sans-serif" font-size="11.5" font-weight="600">onAdventure</text></g></g><g data-edge-id="event-e-adventure-select-finish"><path d="M 2004 1787 L 2004 2013 L 1377.9 2013 L 1377.9 2091" fill="none" stroke="#7c3aed" stroke-width="2.5" stroke-linecap="round" stroke-linejoin="round" marker-end="url(#process-event-arrow-recursive)"></path><g transform="translate(1928 1888)"><rect width="74" height="22" rx="6" fill="#ffffff" stroke="#7c3aed" stroke-width="1" opacity="0.96"></rect><text x="37" y="15" text-anchor="middle" fill="#7c3aed" font-family="ui-sans-serif, system-ui, sans-serif" font-size="11.5" font-weight="600">选牌事件</text></g></g><g data-edge-id="event-e-end-finish"><path d="M 2133.33 1302.5 L 2133.33 1436 L 2133.33 1742 L 2133.33 1899 L 2133.33 2035 L 1397.07 2035 L 1397.07 2091" fill="none" stroke="#7c3aed" stroke-width="2.5" stroke-linecap="round" stroke-linejoin="round" marker-end="url(#process-event-arrow-recursive)"></path><g transform="translate(2057.33 1578)"><rect width="74" height="22" rx="6" fill="#ffffff" stroke="#7c3aed" stroke-width="1" opacity="0.96"></rect><text x="37" y="15" text-anchor="middle" fill="#7c3aed" font-family="ui-sans-serif, system-ui, sans-serif" font-size="11.5" font-weight="600">逐个技能</text></g></g><g data-edge-id="event-e-broadcast-next"><path d="M 2547.33 1315 L 2547.33 1410.5" fill="none" stroke="#334155" stroke-width="2" stroke-linecap="round" stroke-linejoin="round" marker-end="url(#process-event-arrow-control)"></path></g><g data-edge-id="event-e-skill-filter"><path d="M 2624 1474.5 L 2624 1705.67" fill="none" stroke="#334155" stroke-width="2" stroke-linecap="round" stroke-linejoin="round" marker-end="url(#process-event-arrow-control)"></path><g transform="translate(2590 1578)"><rect width="32" height="22" rx="6" fill="#ffffff" stroke="#334155" stroke-width="1" opacity="0.96"></rect><text x="16" y="15" text-anchor="middle" fill="#334155" font-family="ui-sans-serif, system-ui, sans-serif" font-size="11.5" font-weight="600">有</text></g></g><g data-edge-id="event-e-skill-finish"><path d="M 2547.33 1474.5 L 2547.33 1515 L 2410.8 1515 L 2410.8 1589 L 2410.8 1899 L 2410.8 2057 L 1416.23 2057 L 1416.23 2091" fill="none" stroke="#334155" stroke-width="2" stroke-linecap="round" stroke-linejoin="round" marker-end="url(#process-event-arrow-control)"></path><g transform="translate(2413.8 1731)"><rect width="32" height="22" rx="6" fill="#ffffff" stroke="#334155" stroke-width="1" opacity="0.96"></rect><text x="16" y="15" text-anchor="middle" fill="#334155" font-family="ui-sans-serif, system-ui, sans-serif" font-size="11.5" font-weight="600">无</text></g></g><g data-edge-id="event-e-filter-next"><path d="M 2665.4 1769.67 L 2665.4 1821 L 2758.2 1821 L 2758.2 1742 L 2758.2 1436 L 2758.2 1349 L 2624 1349 L 2624 1410.5" fill="none" stroke="#334155" stroke-width="2" stroke-linecap="round" stroke-linejoin="round" marker-end="url(#process-event-arrow-control)"></path><g transform="translate(2761.2 1578)"><rect width="32" height="22" rx="6" fill="#ffffff" stroke="#334155" stroke-width="1" opacity="0.96"></rect><text x="16" y="15" text-anchor="middle" fill="#334155" font-family="ui-sans-serif, system-ui, sans-serif" font-size="11.5" font-weight="600">否</text></g></g><g data-edge-id="event-e-filter-finalize"><path d="M 2582.6 1769.67 L 2582.6 2091" fill="none" stroke="#334155" stroke-width="2" stroke-linecap="round" stroke-linejoin="round" marker-end="url(#process-event-arrow-control)"></path><g transform="translate(2548.6 1888)"><rect width="32" height="22" rx="6" fill="#ffffff" stroke="#334155" stroke-width="1" opacity="0.96"></rect><text x="16" y="15" text-anchor="middle" fill="#334155" font-family="ui-sans-serif, system-ui, sans-serif" font-size="11.5" font-weight="600">是</text></g></g><g data-edge-id="event-e-finalize-next"><path d="M 2467.6 2127 L 12 2127 L 12 1442.5 L 2470.67 1442.5" fill="none" stroke="#7c3aed" stroke-width="2.5" stroke-linecap="round" stroke-linejoin="round" marker-end="url(#process-event-arrow-recursive)"></path><g transform="translate(18 1773.75)"><rect width="74" height="22" rx="6" fill="#ffffff" stroke="#7c3aed" stroke-width="1" opacity="0.96"></rect><text x="37" y="15" text-anchor="middle" fill="#7c3aed" font-family="ui-sans-serif, system-ui, sans-serif" font-size="11.5" font-weight="600">下一候选</text></g></g><g data-edge-id="event-e-finish-more"><path d="M 1320.4 2163 L 1320.4 2239" fill="none" stroke="#334155" stroke-width="2" stroke-linecap="round" stroke-linejoin="round" marker-end="url(#process-event-arrow-control)"></path></g><g data-edge-id="event-e-more-next"><path d="M 1435.4 2271 L 2910.47 2271 L 2910.47 221 L 2879.87 221" fill="none" stroke="#7c3aed" stroke-width="2.5" stroke-linecap="round" stroke-linejoin="round" marker-end="url(#process-event-arrow-recursive)"></path><g transform="translate(2872.47 1235)"><rect width="32" height="22" rx="6" fill="#ffffff" stroke="#7c3aed" stroke-width="1" opacity="0.96"></rect><text x="16" y="15" text-anchor="middle" fill="#7c3aed" font-family="ui-sans-serif, system-ui, sans-serif" font-size="11.5" font-weight="600">是</text></g></g><g data-edge-id="event-e-more-done"><path d="M 1320.4 2303 L 1320.4 2477" fill="none" stroke="#334155" stroke-width="2" stroke-linecap="round" stroke-linejoin="round" marker-end="url(#process-event-arrow-control)"></path><g transform="translate(1286.4 2379)"><rect width="32" height="22" rx="6" fill="#ffffff" stroke="#334155" stroke-width="1" opacity="0.96"></rect><text x="16" y="15" text-anchor="middle" fill="#334155" font-family="ui-sans-serif, system-ui, sans-serif" font-size="11.5" font-weight="600">否</text></g></g><g role="list"><g transform="translate(2644.27 34)" data-node-id="event-input" role="listitem"><title>SkillExecutor.handleEvent</title><rect x="1" y="1" width="239.2" height="77" rx="39.5" fill="#e0f2fe" stroke="#0284c7" stroke-width="2.5" ></rect><text x="120.6" y="34.5" text-anchor="middle" fill="#0f172a" font-family="ui-sans-serif, system-ui, -apple-system, BlinkMacSystemFont, 'Segoe UI', sans-serif"><tspan x="120.6" dy="0" font-size="16" font-weight="650">输入：EventAndRequest 列表</tspan><tspan x="120.6" dy="20" fill="#0369a1" font-family="ui-monospace, SFMono-Regular, Menlo, Monaco, Consolas, monospace" font-size="11.5" font-weight="600">SkillExecutor.handleEvent</tspan></text></g><g transform="translate(2649.87 189)" data-node-id="event-next" role="listitem"><polygon points="115,1 229,32 115,63 1,32" fill="#fef3c7" stroke="#d97706" stroke-width="2"></polygon><text x="115" y="38" text-anchor="middle" fill="#0f172a" font-family="ui-sans-serif, system-ui, -apple-system, BlinkMacSystemFont, 'Segoe UI', sans-serif"><tspan x="115" dy="0" font-size="16" font-weight="650">取下一个事件</tspan></text></g><g transform="translate(2266.89 427)" data-node-id="event-ended" role="listitem"><polygon points="117,1 233,32 117,63 1,32" fill="#fef3c7" stroke="#d97706" stroke-width="2"></polygon><text x="117" y="38" text-anchor="middle" fill="#0f172a" font-family="ui-sans-serif, system-ui, -apple-system, BlinkMacSystemFont, 'Segoe UI', sans-serif"><tspan x="117" dy="0" font-size="16" font-weight="650">当前 phase 已是 gameEnd？</tspan></text></g><g transform="translate(2269.89 665)" data-node-id="event-open" role="listitem"><title>createHandleEventNotifies</title><rect x="1" y="1" width="304" height="95" rx="12" fill="#ecfdf5" stroke="#059669" stroke-width="2" ></rect><line x1="12" x2="12" y1="14" y2="83" stroke="#047857" stroke-width="4" stroke-linecap="round"></line><text x="153" y="34.5" text-anchor="middle" fill="#0f172a" font-family="ui-sans-serif, system-ui, -apple-system, BlinkMacSystemFont, 'Segoe UI', sans-serif"><tspan x="153" dy="0" font-size="16" font-weight="650">通知 handleEvent 开始</tspan><tspan x="153" dy="21" fill="#475569" font-size="12.5" font-weight="450">isClose=false；作用域退出时保证关闭</tspan><tspan x="153" dy="20" fill="#047857" font-family="ui-monospace, SFMono-Regular, Menlo, Monaco, Consolas, monospace" font-size="11.5" font-weight="600">createHandleEventNotifies</tspan></text></g><g transform="translate(2262.89 838)" data-node-id="event-dispatch" role="listitem"><polygon points="160,1 319,32 160,63 1,32" fill="#fef3c7" stroke="#d97706" stroke-width="2"></polygon><text x="160" y="38" text-anchor="middle" fill="#0f172a" font-family="ui-sans-serif, system-ui, -apple-system, BlinkMacSystemFont, 'Segoe UI', sans-serif"><tspan x="160" dy="0" font-size="16" font-weight="650">按事件 / 请求名称分派</tspan></text></g><g transform="translate(87 1863)" data-node-id="event-reroll" role="listitem"><polygon points="18,1 229,1 212,71 1,71" fill="#f3e8ff" stroke="#9333ea" stroke-width="2"></polygon><text x="115" y="33" text-anchor="middle" fill="#0f172a" font-family="ui-sans-serif, system-ui, -apple-system, BlinkMacSystemFont, 'Segoe UI', sans-serif"><tspan x="115" dy="0" font-size="16" font-weight="650">requestReroll</tspan><tspan x="115" dy="21" fill="#475569" font-size="12.5" font-weight="450">Player IO：按 times 重投</tspan></text></g><g transform="translate(213 1212.5)" data-node-id="event-switch-hands" role="listitem"><polygon points="18,1 229,1 212,89 1,89" fill="#f3e8ff" stroke="#9333ea" stroke-width="2"></polygon><text x="115" y="33" text-anchor="middle" fill="#0f172a" font-family="ui-sans-serif, system-ui, -apple-system, BlinkMacSystemFont, 'Segoe UI', sans-serif"><tspan x="115" dy="0" font-size="16" font-weight="650">requestSwitchHands</tspan><tspan x="115" dy="21" fill="#475569" font-size="12.5" font-weight="450">Player IO 换牌</tspan><tspan x="115" dy="18" fill="#475569" font-size="12.5" font-weight="450">递归结算产生的事件</tspan></text></g><g transform="translate(497 1212.5)" data-node-id="event-select-card" role="listitem"><polygon points="18,1 269,1 252,89 1,89" fill="#f3e8ff" stroke="#9333ea" stroke-width="2"></polygon><text x="135" y="33" text-anchor="middle" fill="#0f172a" font-family="ui-sans-serif, system-ui, -apple-system, BlinkMacSystemFont, 'Segoe UI', sans-serif"><tspan x="135" dy="0" font-size="16" font-weight="650">requestSelectCard</tspan><tspan x="135" dy="21" fill="#475569" font-size="12.5" font-weight="450">Player IO 选牌 → 递归结算结果</tspan><tspan x="135" dy="18" fill="#475569" font-size="12.5" font-weight="450">随后递归触发 onSelectCard</tspan></text></g><g transform="translate(821 1226)" data-node-id="event-use-validate" role="listitem"><polygon points="165,1 329,38 165,75 1,38" fill="#fef3c7" stroke="#d97706" stroke-width="2"></polygon><text x="165" y="33" text-anchor="middle" fill="#0f172a" font-family="ui-sans-serif, system-ui, -apple-system, BlinkMacSystemFont, 'Segoe UI', sans-serif"><tspan x="165" dy="0" font-size="16" font-weight="650">requestUseSkill：技能可用</tspan><tspan x="165" dy="22" font-size="16" font-weight="650">且出战角色未禁用技能？</tspan></text></g><g transform="translate(924 1557)" data-node-id="event-use-before" role="listitem"><rect x="1" y="1" width="232" height="62" rx="12" fill="#ecfdf5" stroke="#059669" stroke-width="2" ></rect><line x1="12" x2="12" y1="14" y2="50" stroke="#047857" stroke-width="4" stroke-linecap="round"></line><text x="117" y="38" text-anchor="middle" fill="#0f172a" font-family="ui-sans-serif, system-ui, -apple-system, BlinkMacSystemFont, 'Segoe UI', sans-serif"><tspan x="117" dy="0" font-size="16" font-weight="650">递归结算 onBeforeUseSkill</tspan></text></g><g transform="translate(891.6 1706)" data-node-id="event-use-finalize" role="listitem"><rect x="1" y="1" width="296.8" height="70" rx="12" fill="#ffffff" stroke="#475569" stroke-width="2" ></rect><text x="149.4" y="33" text-anchor="middle" fill="#0f172a" font-family="ui-sans-serif, system-ui, -apple-system, BlinkMacSystemFont, 'Segoe UI', sans-serif"><tspan x="149.4" dy="0" font-size="16" font-weight="650">finalizeSkill(请求的技能)</tspan><tspan x="149.4" dy="21" fill="#475569" font-size="12.5" font-weight="450">计算 charged / plunging / prepared</tspan></text></g><g transform="translate(926 1867)" data-node-id="event-use-after" role="listitem"><rect x="1" y="1" width="228" height="62" rx="12" fill="#ecfdf5" stroke="#059669" stroke-width="2" ></rect><line x1="12" x2="12" y1="14" y2="50" stroke="#047857" stroke-width="4" stroke-linecap="round"></line><text x="115" y="38" text-anchor="middle" fill="#0f172a" font-family="ui-sans-serif, system-ui, -apple-system, BlinkMacSystemFont, 'Segoe UI', sans-serif"><tspan x="115" dy="0" font-size="16" font-weight="650">递归结算 onUseSkill</tspan></text></g><g transform="translate(1293.07 1391)" data-node-id="event-play-create" role="listitem"><rect x="1" y="1" width="228" height="88" rx="12" fill="#ffffff" stroke="#475569" stroke-width="2" ></rect><text x="115" y="33" text-anchor="middle" fill="#0f172a" font-family="ui-sans-serif, system-ui, -apple-system, BlinkMacSystemFont, 'Segoe UI', sans-serif"><tspan x="115" dy="0" font-size="16" font-weight="650">requestPlayCard</tspan><tspan x="115" dy="21" fill="#475569" font-size="12.5" font-weight="450">临时创建不爆牌的手牌实体</tspan><tspan x="115" dy="18" fill="#475569" font-size="12.5" font-weight="450">查找 playCard 技能</tspan></text></g><g transform="translate(1293.07 1557)" data-node-id="event-play-exists" role="listitem"><polygon points="115,1 229,32 115,63 1,32" fill="#fef3c7" stroke="#d97706" stroke-width="2"></polygon><text x="115" y="38" text-anchor="middle" fill="#0f172a" font-family="ui-sans-serif, system-ui, -apple-system, BlinkMacSystemFont, 'Segoe UI', sans-serif"><tspan x="115" dy="0" font-size="16" font-weight="650">存在 playCard 技能？</tspan></text></g><g transform="translate(1331.4 1867)" data-node-id="event-play-finalize" role="listitem"><rect x="1" y="1" width="228" height="62" rx="12" fill="#ffffff" stroke="#475569" stroke-width="2" ></rect><text x="115" y="38" text-anchor="middle" fill="#0f172a" font-family="ui-sans-serif, system-ui, -apple-system, BlinkMacSystemFont, 'Segoe UI', sans-serif"><tspan x="115" dy="0" font-size="16" font-weight="650">finalizeSkill(playCard)</tspan></text></g><g transform="translate(1777.33 1408.33)" data-node-id="event-adventure-spot" role="listitem"><polygon points="170,1 339,32 170,63 1,32" fill="#fef3c7" stroke="#d97706" stroke-width="2"></polygon><text x="170" y="38" text-anchor="middle" fill="#0f172a" font-family="ui-sans-serif, system-ui, -apple-system, BlinkMacSystemFont, 'Segoe UI', sans-serif"><tspan x="170" dy="0" font-size="16" font-weight="650">requestAdventure：已有冒险地点？</tspan></text></g><g transform="translate(1591.8 1706)" data-node-id="event-adventure-existing" role="listitem"><rect x="1" y="1" width="239.2" height="70" rx="12" fill="#ecfdf5" stroke="#059669" stroke-width="2" ></rect><line x1="12" x2="12" y1="14" y2="58" stroke="#047857" stroke-width="4" stroke-linecap="round"></line><text x="120.6" y="33" text-anchor="middle" fill="#0f172a" font-family="ui-sans-serif, system-ui, -apple-system, BlinkMacSystemFont, 'Segoe UI', sans-serif"><tspan x="120.6" dy="0" font-size="16" font-weight="650">地点 exp +1</tspan><tspan x="120.6" dy="21" fill="#475569" font-size="12.5" font-weight="450">递归触发该地点 onAdventure</tspan></text></g><g transform="translate(1887 1697)" data-node-id="event-adventure-select" role="listitem"><polygon points="18,1 233,1 216,89 1,89" fill="#f3e8ff" stroke="#9333ea" stroke-width="2"></polygon><text x="117" y="33" text-anchor="middle" fill="#0f172a" font-family="ui-sans-serif, system-ui, -apple-system, BlinkMacSystemFont, 'Segoe UI', sans-serif"><tspan x="117" dy="0" font-size="16" font-weight="650">请求选择冒险地点</tspan><tspan x="117" dy="21" fill="#475569" font-size="12.5" font-weight="450">递归结算选牌结果</tspan><tspan x="117" dy="18" fill="#475569" font-size="12.5" font-weight="450">随后递归触发 onSelectCard</tspan></text></g><g transform="translate(1958.33 1212.5)" data-node-id="event-end-phase" role="listitem"><rect x="1" y="1" width="348" height="88" rx="12" fill="#ffffff" stroke="#475569" stroke-width="2" ></rect><text x="175" y="33" text-anchor="middle" fill="#0f172a" font-family="ui-sans-serif, system-ui, -apple-system, BlinkMacSystemFont, 'Segoe UI', sans-serif"><tspan x="175" dy="0" font-size="16" font-weight="650">requestTriggerEndPhaseSkill</tspan><tspan x="175" dy="21" fill="#475569" font-size="12.5" font-weight="450">遍历指定实体的 onEndPhase 技能</tspan><tspan x="175" dy="18" fill="#475569" font-size="12.5" font-weight="450">filter 通过则逐一 finalizeSkill</tspan></text></g><g transform="translate(2362.33 1200)" data-node-id="event-broadcast" role="listitem"><title>SkillExecutor.broadcastEvent</title><rect x="1" y="1" width="368" height="113" rx="12" fill="#ffffff" stroke="#475569" stroke-width="2" ></rect><text x="185" y="34.5" text-anchor="middle" fill="#0f172a" font-family="ui-sans-serif, system-ui, -apple-system, BlinkMacSystemFont, 'Segoe UI', sans-serif"><tspan x="185" dy="0" font-size="16" font-weight="650">普通核心事件：收集响应技能快照</tspan><tspan x="185" dy="21" fill="#475569" font-size="12.5" font-weight="450">onDispose 先加入被弃置实体自身技能</tspan><tspan x="185" dy="18" fill="#475569" font-size="12.5" font-weight="450">再追加 allSkills(当前场上实体与扩展)</tspan><tspan x="185" dy="20" fill="#334155" font-family="ui-monospace, SFMono-Regular, Menlo, Monaco, Consolas, monospace" font-size="11.5" font-weight="600">SkillExecutor.broadcastEvent</tspan></text></g><g transform="translate(2470.67 1410.5)" data-node-id="event-skill-next" role="listitem"><polygon points="115,1 229,32 115,63 1,32" fill="#fef3c7" stroke="#d97706" stroke-width="2"></polygon><text x="115" y="38" text-anchor="middle" fill="#0f172a" font-family="ui-sans-serif, system-ui, -apple-system, BlinkMacSystemFont, 'Segoe UI', sans-serif"><tspan x="115" dy="0" font-size="16" font-weight="650">取下一个候选技能</tspan></text></g><g transform="translate(2499.8 1705.67)" data-node-id="event-filter" role="listitem"><polygon points="124.2,1 247.4,32 124.2,63 1,32" fill="#fef3c7" stroke="#d97706" stroke-width="2"></polygon><text x="124.2" y="38" text-anchor="middle" fill="#0f172a" font-family="ui-sans-serif, system-ui, -apple-system, BlinkMacSystemFont, 'Segoe UI', sans-serif"><tspan x="124.2" dy="0" font-size="16" font-weight="650">skill.filter 当前状态通过？</tspan></text></g><g transform="translate(2467.6 2091)" data-node-id="event-finalize" role="listitem"><rect x="1" y="1" width="228" height="70" rx="12" fill="#ffffff" stroke="#475569" stroke-width="2" ></rect><text x="115" y="33" text-anchor="middle" fill="#0f172a" font-family="ui-sans-serif, system-ui, -apple-system, BlinkMacSystemFont, 'Segoe UI', sans-serif"><tspan x="115" dy="0" font-size="16" font-weight="650">finalizeSkill(响应技能)</tspan><tspan x="115" dy="21" fill="#475569" font-size="12.5" font-weight="450">其事件在此处深度优先结算</tspan></text></g><g transform="translate(1205.4 2091)" data-node-id="event-finish" role="listitem"><rect x="1" y="1" width="228" height="70" rx="12" fill="#ecfdf5" stroke="#059669" stroke-width="2" ></rect><line x1="12" x2="12" y1="14" y2="58" stroke="#047857" stroke-width="4" stroke-linecap="round"></line><text x="115" y="33" text-anchor="middle" fill="#0f172a" font-family="ui-sans-serif, system-ui, -apple-system, BlinkMacSystemFont, 'Segoe UI', sans-serif"><tspan x="115" dy="0" font-size="16" font-weight="650">通知 handleEvent 关闭</tspan><tspan x="115" dy="21" fill="#475569" font-size="12.5" font-weight="450">isClose=true</tspan></text></g><g transform="translate(1205.4 2239)" data-node-id="event-more" role="listitem"><polygon points="115,1 229,32 115,63 1,32" fill="#fef3c7" stroke="#d97706" stroke-width="2"></polygon><text x="115" y="38" text-anchor="middle" fill="#0f172a" font-family="ui-sans-serif, system-ui, -apple-system, BlinkMacSystemFont, 'Segoe UI', sans-serif"><tspan x="115" dy="0" font-size="16" font-weight="650">外层列表还有事件？</tspan></text></g><g transform="translate(1205.4 2477)" data-node-id="event-done" role="listitem"><rect x="1" y="1" width="228" height="62" rx="32" fill="#dcfce7" stroke="#16a34a" stroke-width="2.5" ></rect><text x="115" y="38" text-anchor="middle" fill="#0f172a" font-family="ui-sans-serif, system-ui, -apple-system, BlinkMacSystemFont, 'Segoe UI', sans-serif"><tspan x="115" dy="0" font-size="16" font-weight="650">本层事件列表结算完成</tspan></text></g></g></g><g transform="translate(1195.735 2724)"><text x="0" y="4" fill="#475569" font-family="ui-sans-serif, system-ui, sans-serif" font-size="12" font-weight="700">图例</text><g transform="translate(72 0)"><line x1="0" x2="48" y1="0" y2="0" stroke="#334155" stroke-width="2" marker-end="url(#process-event-arrow-control)"></line><text x="59" y="4" fill="#475569" font-family="ui-sans-serif, system-ui, sans-serif" font-size="12">控制流</text></g><g transform="translate(222 0)"><line x1="0" x2="48" y1="0" y2="0" stroke="#0284c7" stroke-width="2" stroke-dasharray="7 5" marker-end="url(#process-event-arrow-data)"></line><text x="59" y="4" fill="#475569" font-family="ui-sans-serif, system-ui, sans-serif" font-size="12">数据流</text></g><g transform="translate(372 0)"><line x1="0" x2="48" y1="0" y2="0" stroke="#7c3aed" stroke-width="2.5" marker-end="url(#process-event-arrow-recursive)"></line><text x="59" y="4" fill="#475569" font-family="ui-sans-serif, system-ui, sans-serif" font-size="12">递归结算</text></g></g></svg>
